<?xml version="1.0" encoding="UTF-8" standalone="no"?>
<!DOCTYPE svg PUBLIC "-//W3C//DTD SVG 1.1//EN"
 "http://www.w3.org/Graphics/SVG/1.1/DTD/svg11.dtd">
<!-- Generated by graphviz version 7.1.0 (20230121.1956)
 -->
<!-- Title: G Pages: 1 -->
<svg width="134pt" height="118pt"
 viewBox="0.00 0.00 134.00 118.00" xmlns="http://www.w3.org/2000/svg" xmlns:xlink="http://www.w3.org/1999/xlink">
<g id="graph0" class="graph" transform="scale(1 1) rotate(0) translate(4 114)">
<title>G</title>
<polygon fill="white" stroke="none" points="-4,4 -4,-114 130,-114 130,4 -4,4"/>
<!-- nodo7 -->
<g id="node1" class="node">
<title>nodo7</title>
<path fill="#ededed" stroke="blue" d="M43.5,-73.5C43.5,-73.5 82.5,-73.5 82.5,-73.5 88.5,-73.5 94.5,-79.5 94.5,-85.5 94.5,-85.5 94.5,-97.5 94.5,-97.5 94.5,-103.5 88.5,-109.5 82.5,-109.5 82.5,-109.5 43.5,-109.5 43.5,-109.5 37.5,-109.5 31.5,-103.5 31.5,-97.5 31.5,-97.5 31.5,-85.5 31.5,-85.5 31.5,-79.5 37.5,-73.5 43.5,-73.5"/>
<text text-anchor="middle" x="41.5" y="-87.8" font-family="Times New Roman,serif" font-size="14.00"> </text>
<polyline fill="none" stroke="blue" points="51.5,-73.5 51.5,-109.5"/>
<text text-anchor="middle" x="63" y="-87.8" font-family="Times New Roman,serif" font-size="14.00">7</text>
<polyline fill="none" stroke="blue" points="74.5,-73.5 74.5,-109.5"/>
<text text-anchor="middle" x="84.5" y="-87.8" font-family="Times New Roman,serif" font-size="14.00"> </text>
</g>
<!-- nodo5 -->
<g id="node2" class="node">
<title>nodo5</title>
<path fill="#ededed" stroke="blue" d="M12,-0.5C12,-0.5 42,-0.5 42,-0.5 48,-0.5 54,-6.5 54,-12.5 54,-12.5 54,-24.5 54,-24.5 54,-30.5 48,-36.5 42,-36.5 42,-36.5 12,-36.5 12,-36.5 6,-36.5 0,-30.5 0,-24.5 0,-24.5 0,-12.5 0,-12.5 0,-6.5 6,-0.5 12,-0.5"/>
<text text-anchor="middle" x="27" y="-14.8" font-family="Times New Roman,serif" font-size="14.00">5</text>
</g>
<!-- nodo7&#45;&gt;nodo5 -->
<g id="edge1" class="edge">
<title>nodo7:C0&#45;&gt;nodo5</title>
<path fill="none" stroke="black" d="M41,-73C41,-64.39 39.28,-55.24 37.05,-46.99"/>
<polygon fill="black" stroke="black" points="40.42,-46.04 34.12,-37.52 33.73,-48.11 40.42,-46.04"/>
</g>
<!-- nodo10 -->
<g id="node3" class="node">
<title>nodo10</title>
<path fill="#ededed" stroke="blue" d="M84,-0.5C84,-0.5 114,-0.5 114,-0.5 120,-0.5 126,-6.5 126,-12.5 126,-12.5 126,-24.5 126,-24.5 126,-30.5 120,-36.5 114,-36.5 114,-36.5 84,-36.5 84,-36.5 78,-36.5 72,-30.5 72,-24.5 72,-24.5 72,-12.5 72,-12.5 72,-6.5 78,-0.5 84,-0.5"/>
<text text-anchor="middle" x="99" y="-14.8" font-family="Times New Roman,serif" font-size="14.00">10</text>
</g>
<!-- nodo7&#45;&gt;nodo10 -->
<g id="edge2" class="edge">
<title>nodo7:C1&#45;&gt;nodo10</title>
<path fill="none" stroke="black" d="M85,-73C85,-64.39 86.72,-55.24 88.95,-46.99"/>
<polygon fill="black" stroke="black" points="92.27,-48.11 91.88,-37.52 85.58,-46.04 92.27,-48.11"/>
</g>
</g>
</svg>
